<svg width="2148" height="318" viewBox="0 0 2148 318" fill="none" xmlns="http://www.w3.org/2000/svg">
<path d="M229.66 317.104C229.66 317.104 373.7 317.104 409.428 307.591C429.545 302.2 444.674 286.662 449.984 267.477C459.801 232.279 459.801 158.235 459.801 158.235C459.801 158.235 459.801 84.6669 449.984 49.7854C444.674 30.1249 429.545 14.9038 409.428 9.67166C373.7 -3.71933e-05 229.66 0 229.66 0C229.66 0 85.9411 -3.71933e-05 50.3738 9.67166C30.5784 14.9038 15.1282 30.1249 9.49537 49.7854C1.90735e-06 84.6669 0 158.235 0 158.235C0 158.235 1.90735e-06 232.279 9.49537 267.477C15.1282 286.662 30.5784 302.2 50.3738 307.591C85.9411 317.104 229.66 317.104 229.66 317.104Z" fill="#FF0033"/>
<path d="M536.32 83.68H591.76C612.293 83.68 627.973 88.2533 638.8 97.4C649.627 106.36 655.04 119.52 655.04 136.88C655.04 155.547 649.533 169.92 638.52 180C627.693 189.893 612.107 194.84 591.76 194.84H575.52V257H536.32V83.68ZM575.24 162.36H590.92C607.907 162.36 616.4 154.053 616.4 137.44C616.4 129.973 614.347 124.56 610.24 121.2C606.133 117.84 599.693 116.16 590.92 116.16H575.24V162.36Z" fill="black"/>
<path d="M683.178 155.92L671.418 127.92C686.911 118.96 704.178 114.48 723.218 114.48C743.565 114.48 758.684 120.08 768.578 131.28C778.658 142.48 783.698 159.56 783.698 182.52V257H750.658V247.2C743.005 255.413 732.084 259.52 717.898 259.52C702.031 259.52 689.431 255.227 680.098 246.64C670.765 238.053 666.098 226.573 666.098 212.2C666.098 198.2 670.671 187 679.818 178.6C689.151 170.2 701.564 166 717.058 166C729.004 166 739.084 169.08 747.298 175.24C746.364 165.347 743.751 158.347 739.458 154.24C735.351 149.947 728.818 147.8 719.858 147.8C709.031 147.8 696.804 150.507 683.178 155.92ZM724.618 197.08C709.871 197.08 702.498 202.027 702.498 211.92C702.498 217.333 704.178 221.253 707.538 223.68C711.085 225.92 716.871 227.04 724.898 227.04C732.551 227.04 738.058 225.827 741.418 223.4C744.965 220.973 746.738 217.147 746.738 211.92C746.738 206.693 744.965 202.96 741.418 200.72C738.058 198.293 732.458 197.08 724.618 197.08Z" fill="black"/>
<path d="M845.311 117V128.76C853.524 119.24 864.164 114.48 877.231 114.48C893.844 114.48 906.911 120.453 916.431 132.4C925.578 120.453 938.644 114.48 955.631 114.48C972.618 114.48 985.684 119.613 994.831 129.88C1003.98 139.96 1008.55 154.333 1008.55 173V257H970.751V175.52C970.751 165.813 969.258 159 966.271 155.08C963.284 150.973 958.244 148.92 951.151 148.92C943.124 148.92 937.338 151.533 933.791 156.76C930.431 161.8 928.751 170.2 928.751 181.96V257H890.951V175.52C890.951 166 889.458 159.187 886.471 155.08C883.484 150.973 878.444 148.92 871.351 148.92C863.324 148.92 857.538 151.533 853.991 156.76C850.444 161.987 848.671 170.387 848.671 181.96L848.951 257H811.151V117H845.311Z" fill="black"/>
<path d="M1037.1 257V83.68H1080.78C1119.24 83.68 1138.46 98.4267 1138.46 127.92C1138.46 145.84 1131.28 159.093 1116.9 167.68C1127.17 172.533 1134.54 178.32 1139.02 185.04C1143.5 191.573 1145.74 200.067 1145.74 210.52C1145.74 228.627 1139.77 241.413 1127.82 248.88C1118.49 254.293 1104.58 257 1086.1 257H1037.1ZM1053.62 162.08H1083.02C1093.85 162.08 1101.32 161.427 1105.42 160.12C1109.72 158.627 1113.45 155.733 1116.62 151.44C1120.54 145.653 1122.5 138.187 1122.5 129.04C1122.5 108.507 1109.34 98.24 1083.02 98.24H1053.62V162.08ZM1053.9 242.44H1083.3C1099.36 242.44 1110.93 240.013 1118.02 235.16C1125.12 230.12 1128.66 222 1128.66 210.8C1128.66 200.72 1125.4 192.6 1118.86 186.44C1111.58 179.907 1099.64 176.64 1083.02 176.64H1053.9V242.44Z" fill="black"/>
<path d="M1185.27 135.76L1179.95 122.88C1193.39 117.467 1207.58 114.76 1222.51 114.76C1241.74 114.76 1255.74 120.173 1264.51 131C1273.47 141.64 1277.95 158.533 1277.95 181.68V257H1262.83V246.64C1254.62 255.04 1241.27 259.24 1222.79 259.24C1208.61 259.24 1197.5 256.907 1189.47 252.24C1176.59 244.587 1170.15 231.893 1170.15 214.16C1170.15 199.413 1174.63 188.213 1183.59 180.56C1192.74 172.72 1205.81 168.8 1222.79 168.8C1236.42 168.8 1249.3 172.72 1261.43 180.56C1261.43 168.613 1260.5 159.747 1258.63 153.96C1256.95 147.987 1253.78 142.947 1249.11 138.84C1241.83 132.68 1231.66 129.6 1218.59 129.6C1207.58 129.6 1196.47 131.653 1185.27 135.76ZM1223.63 183.36C1211.69 183.36 1202.45 186.067 1195.91 191.48C1189.57 196.893 1186.39 204.64 1186.39 214.72C1186.39 234.693 1198.9 244.68 1223.91 244.68C1249.3 244.68 1261.99 235.067 1261.99 215.84C1261.99 205.387 1258.73 197.36 1252.19 191.76C1245.66 186.16 1236.14 183.36 1223.63 183.36Z" fill="black"/>
<path d="M1410.74 126.52L1403.46 138.56C1392.82 132.587 1382.18 129.6 1371.54 129.6C1357.17 129.6 1345.69 134.827 1337.1 145.28C1328.7 155.733 1324.5 169.827 1324.5 187.56C1324.5 205.293 1328.79 219.2 1337.38 229.28C1345.97 239.36 1357.82 244.4 1372.94 244.4C1384.7 244.4 1395.81 241.133 1406.26 234.6L1413.54 246.64C1400.85 255.04 1386.29 259.24 1369.86 259.24C1350.07 259.24 1334.77 253.08 1323.94 240.76C1313.3 228.253 1307.98 210.613 1307.98 187.84C1307.98 165.067 1313.49 147.24 1324.5 134.36C1335.51 121.293 1350.73 114.76 1370.14 114.76C1385.26 114.76 1398.79 118.68 1410.74 126.52Z" fill="black"/>
<path d="M1457.55 181.96L1513.27 117H1533.15L1472.11 187.56L1544.35 257H1521.67L1457.55 195.4V257H1441.31V65.48H1457.55V181.96Z" fill="black"/>
<path d="M1628.84 81.44C1651.43 81.44 1669.25 89.4667 1682.32 105.52C1695.57 121.387 1702.2 142.947 1702.2 170.2C1702.2 198.387 1695.67 220.32 1682.6 236C1669.53 251.493 1651.24 259.24 1627.72 259.24C1598.41 259.24 1577.69 247.947 1565.56 225.36C1557.16 210.613 1552.96 192.32 1552.96 170.48C1552.96 142.48 1559.59 120.64 1572.84 104.96C1586.28 89.28 1604.95 81.44 1628.84 81.44ZM1626.6 97.12C1608.87 97.12 1595.05 103.747 1585.16 117C1575.27 130.067 1570.32 148.36 1570.32 171.88C1570.32 194.84 1575.27 212.573 1585.16 225.08C1595.05 237.4 1609.15 243.56 1627.44 243.56C1645.92 243.56 1660.11 237.4 1670 225.08C1679.89 212.573 1684.84 194.933 1684.84 172.16C1684.84 147.893 1679.8 129.32 1669.72 116.44C1659.83 103.56 1645.45 97.12 1626.6 97.12Z" fill="black"/>
<path d="M1796.31 131.56H1750.95V257H1734.71V112.52C1734.71 79.48 1749.55 62.96 1779.23 62.96C1784.83 62.96 1790.52 63.4267 1796.31 64.36L1790.43 77.8C1786.88 77.6133 1783.61 77.52 1780.63 77.52C1770.17 77.52 1762.52 80.32 1757.67 85.92C1753 91.52 1750.67 100.387 1750.67 112.52V117H1796.31V112.52C1796.31 79.48 1811.61 62.96 1842.23 62.96C1850.44 62.96 1859.49 64.36 1869.39 67.16V80.88C1859.49 78.64 1850.81 77.52 1843.35 77.52C1832.71 77.52 1824.87 80.4133 1819.83 86.2C1814.79 91.8 1812.27 100.573 1812.27 112.52V117H1875.27V222.56C1874.71 236 1879.37 242.813 1889.27 243H1891.23V258.12H1889.27C1878.63 258.307 1870.97 255.88 1866.31 250.84C1861.64 245.613 1859.21 237.12 1859.03 225.36V131.56H1812.55V257H1796.31V131.56Z" fill="black"/>
<path d="M2017.77 126.52L2010.49 138.56C1999.85 132.587 1989.21 129.6 1978.57 129.6C1964.2 129.6 1952.72 134.827 1944.13 145.28C1935.73 155.733 1931.53 169.827 1931.53 187.56C1931.53 205.293 1935.82 219.2 1944.41 229.28C1953 239.36 1964.85 244.4 1979.97 244.4C1991.73 244.4 2002.84 241.133 2013.29 234.6L2020.57 246.64C2007.88 255.04 1993.32 259.24 1976.89 259.24C1957.1 259.24 1941.8 253.08 1930.97 240.76C1920.33 228.253 1915.01 210.613 1915.01 187.84C1915.01 165.067 1920.52 147.24 1931.53 134.36C1942.54 121.293 1957.76 114.76 1977.17 114.76C1992.29 114.76 2005.82 118.68 2017.77 126.52Z" fill="black"/>
<path d="M2146.45 194.84H2053.21C2055.26 227.88 2071.41 244.4 2101.65 244.4C2113.78 244.4 2125.17 240.573 2135.81 232.92L2144.21 244.12C2131.52 254.2 2116.4 259.24 2098.85 259.24C2079.25 259.24 2063.94 253.08 2052.93 240.76C2042.1 228.44 2036.69 211.08 2036.69 188.68C2036.69 170.387 2040.42 154.707 2047.89 141.64C2057.78 123.72 2073.46 114.76 2094.93 114.76C2111.92 114.76 2124.8 120.547 2133.57 132.12C2142.53 143.693 2147.01 160.68 2147.01 183.08L2146.45 194.84ZM2053.21 181.4H2131.33C2131.33 169.453 2130.4 160.307 2128.53 153.96C2126.66 146.493 2122.56 140.613 2116.21 136.32C2109.86 131.84 2102.4 129.6 2093.81 129.6C2077.01 129.6 2065.16 137.72 2058.25 153.96C2055.64 160.307 2053.96 169.453 2053.21 181.4Z" fill="black"/>
<path d="M184.167 225.667C171.528 225.667 160.729 221.292 151.771 212.542C142.813 203.792 138.333 193.097 138.333 180.458C138.333 169.625 141.597 159.972 148.125 151.5C154.653 143.028 163.195 137.611 173.75 135.25C177.222 122.472 184.167 112.125 194.583 104.208C205 96.2917 216.806 92.3334 230 92.3334C246.25 92.3334 260.035 97.9931 271.354 109.313C282.674 120.632 288.333 134.417 288.333 150.667C297.917 151.778 305.868 155.91 312.188 163.063C318.507 170.215 321.667 178.583 321.667 188.167C321.667 198.583 318.021 207.438 310.729 214.729C303.438 222.021 294.583 225.667 284.167 225.667H238.333V166.083L245.833 173.375C247.361 174.903 249.271 175.667 251.563 175.667C253.854 175.667 255.833 174.833 257.5 173.167C259.028 171.639 259.792 169.694 259.792 167.333C259.792 164.972 259.028 163.028 257.5 161.5L235.833 139.833C234.167 138.167 232.222 137.333 230 137.333C227.778 137.333 225.833 138.167 224.167 139.833L202.5 161.5C200.972 163.028 200.174 164.938 200.104 167.229C200.035 169.521 200.834 171.5 202.5 173.167C204.028 174.694 205.938 175.493 208.229 175.563C210.521 175.632 212.5 174.903 214.167 173.375L221.667 166.083V225.667H184.167Z" fill="white"/>
</svg>
